# File created by Blade
# Date/Time:  Wed Jan 21 14:37:15 2015
# Frame Rate: 120.000 fps
#------------------------------------------------------
:FULLY-SPECIFIED
:DEGREES
284
root 18.702169 35.593998 -21.168393 -173.645810 -7.245470 -180.168303
Spine -16.158774 6.522154 2.210671
Head 0.228828 -7.413118 -6.292653
LeftShoulder 17.553978 -35.076267 -19.307488
LeftArm 18.413391 23.485223 -76.237224
LeftForeArm -36.840460 -0.000000 139.600696
LeftHand -0.699131 -0.000000 24.307909
LeftHandThumb1 -26.253704 0.000000 33.147579
RightShoulder 16.708398 59.575425 -33.326216
RightArm 95.514855 -30.538308 64.402647
RightForeArm -54.810517 -0.000000 120.079047
RightHand -6.472354 0.000000 7.967188
RightHandThumb1 -24.326973 -0.000000 -32.862282
LeftUpLeg -0.787129 9.456332 0.362329
LeftLeg -5.923690 -0.000000 0.000000
LeftFoot -17.684287 27.149701 -12.111339
LeftToeBase 26.514267 -0.000000 -0.000000
RightUpLeg 0.271178 -12.576041 0.471010
RightLeg -3.885923 -0.000000 0.000000
RightFoot -20.231110 -28.334430 13.049446
RightToeBase 23.811355 -0.000000 -0.000000
285
root 18.702293 35.593751 -21.172209 -173.623226 -7.226112 -180.162785
Spine -16.195771 6.616647 2.151826
Head 0.249031 -7.471292 -6.269285
LeftShoulder 17.597624 -35.133196 -19.323571
LeftArm 18.343302 23.450009 -76.253998
LeftForeArm -36.817569 -0.000000 139.570746
LeftHand -0.753439 0.000000 24.170415
LeftHandThumb1 -26.253704 0.000000 33.147579
RightShoulder 16.637294 59.552320 -33.382758
RightArm 95.599858 -30.498857 64.278006
RightForeArm -54.929539 -0.000000 120.139052
RightHand -6.561164 -0.000000 7.835910
RightHandThumb1 -24.326973 -0.000000 -32.862282
LeftUpLeg -0.798232 9.467657 0.362679
LeftLeg -5.932677 -0.000000 0.000000
LeftFoot -17.694585 27.172368 -12.113484
LeftToeBase 26.517736 -0.000000 -0.000000
RightUpLeg 0.257804 -12.576956 0.479887
RightLeg -3.900350 -0.000000 0.000000
RightFoot -20.214343 -28.308542 13.013296
RightToeBase 23.904280 -0.000000 -0.000000
286
root 18.702582 35.593972 -21.177239 -173.602014 -7.218270 -180.158360
Spine -16.245769 6.687727 2.096491
Head 0.294911 -7.519635 -6.240003
LeftShoulder 17.625841 -35.147296 -19.321860
LeftArm 18.322129 23.416451 -76.225659
LeftForeArm -36.951816 -0.000000 139.532120
LeftHand -0.660946 -0.000000 24.074526
LeftHandThumb1 -26.253704 0.000000 33.147579
RightShoulder 16.618785 59.541651 -33.365680
RightArm 95.652596 -30.477049 64.191453
RightForeArm -54.924316 -0.000000 120.189670
RightHand -6.596414 -0.000000 7.803477
RightHandThumb1 -24.326973 -0.000000 -32.862282
LeftUpLeg -0.807909 9.487843 0.364881
LeftLeg -5.938902 -0.000000 0.000000
LeftFoot -17.693251 27.155046 -12.115607
LeftToeBase 26.560818 -0.000000 -0.000000
RightUpLeg 0.241683 -12.591256 0.487761
RightLeg -3.896851 -0.000000 0.000000
RightFoot -20.222873 -28.283837 13.050161
RightToeBase 23.822082 -0.000000 -0.000000
287
root 18.703009 35.594134 -21.181269 -173.575757 -7.208021 -180.154412
Spine -16.297080 6.747682 2.046576
Head 0.339782 -7.525674 -6.216456
LeftShoulder 17.629413 -35.149976 -19.297446
LeftArm 18.320164 23.372360 -76.218345
LeftForeArm -36.959144 -0.000000 139.498357
LeftHand -0.632317 -0.000000 24.028384
LeftHandThumb1 -26.253704 0.000000 33.147579
RightShoulder 16.594196 59.540417 -33.367744
RightArm 95.659439 -30.456048 64.184289
RightForeArm -54.757975 -0.000000 120.260672
RightHand -6.490444 -0.000000 7.883163
RightHandThumb1 -24.326973 -0.000000 -32.862282
LeftUpLeg -0.820862 9.506650 0.364574
LeftLeg -5.954144 -0.000000 0.000000
LeftFoot -17.696218 27.157772 -12.127493
LeftToeBase 26.512603 -0.000000 -0.000000
RightUpLeg 0.223822 -12.584457 0.496059
RightLeg -3.905853 -0.000000 0.000000
RightFoot -20.211780 -28.284439 13.008850
RightToeBase 23.935502 -0.000000 -0.000000
288
root 18.702795 35.594165 -21.185448 -173.544195 -7.208671 -180.156671
Spine -16.357414 6.792499 1.990720
Head 0.396088 -7.513326 -6.185266
LeftShoulder 17.641901 -35.172859 -19.275385
LeftArm 18.289848 23.320693 -76.239564
LeftForeArm -36.950422 0.000000 139.482378
LeftHand -0.659862 -0.000000 23.955442
LeftHandThumb1 -26.253704 0.000000 33.147579
RightShoulder 16.580040 59.518560 -33.354991
RightArm 95.682665 -30.430980 64.133879
RightForeArm -54.743415 -0.000000 120.308629
RightHand -6.412659 -0.000000 7.892435
RightHandThumb1 -24.326973 -0.000000 -32.862282
LeftUpLeg -0.842324 9.512417 0.357674
LeftLeg -5.963949 -0.000000 0.000000
LeftFoot -17.684603 27.157515 -12.125772
LeftToeBase 26.485530 -0.000000 -0.000000
RightUpLeg 0.206265 -12.591907 0.500116
RightLeg -3.920278 -0.000000 0.000000
RightFoot -20.203133 -28.270945 13.054557
RightToeBase 23.781795 -0.000000 -0.000000
289
root 18.702958 35.594570 -21.189702 -173.520910 -7.207933 -180.146793
Spine -16.413913 6.847262 1.948792
Head 0.461910 -7.460877 -6.138301
LeftShoulder 17.653689 -35.155884 -19.252101
LeftArm 18.320329 23.274220 -76.176564
LeftForeArm -36.896718 -0.000000 139.455158
LeftHand -0.732561 -0.000000 23.870650
LeftHandThumb1 -26.253704 0.000000 33.147579
RightShoulder 16.544508 59.496008 -33.382246
RightArm 95.701128 -30.397917 64.064555
RightForeArm -54.835724 -0.000000 120.361131
RightHand -6.406709 -0.000000 7.834056
RightHandThumb1 -24.326973 -0.000000 -32.862282
LeftUpLeg -0.853455 9.529524 0.364452
LeftLeg -5.978201 -0.000000 0.000000
LeftFoot -17.682844 27.150253 -12.123567
LeftToeBase 26.383633 -0.000000 -0.000000
RightUpLeg 0.188109 -12.595134 0.514158
RightLeg -3.920780 -0.000000 0.000000
RightFoot -20.205073 -28.255609 13.070826
RightToeBase 23.772478 -0.000000 -0.000000
290
root 18.702321 35.594408 -21.192911 -173.474015 -7.203356 -180.146461
Spine -16.483936 6.883863 1.903679
Head 0.489288 -7.440969 -6.118236
LeftShoulder 17.626330 -35.180207 -19.205228
LeftArm 18.363637 23.284737 -76.131964
LeftForeArm -36.928300 -0.000000 139.437060
LeftHand -0.732408 -0.000000 23.894381
LeftHandThumb1 -26.253704 0.000000 33.147579
RightShoulder 16.487709 59.487238 -33.423747
RightArm 95.714667 -30.373420 64.047642
RightForeArm -54.860097 -0.000000 120.391846
RightHand -6.349275 -0.000000 7.835958
RightHandThumb1 -24.326973 -0.000000 -32.862282
LeftUpLeg -0.886737 9.539339 0.356279
LeftLeg -5.993279 -0.000000 0.000000
LeftFoot -17.678867 27.143245 -12.128113
LeftToeBase 26.550181 -0.000000 -0.000000
RightUpLeg 0.147008 -12.585190 0.522850
RightLeg -3.928165 -0.000000 0.000000
RightFoot -20.211396 -28.233943 13.165540
RightToeBase 23.649058 -0.000000 -0.000000
291
root 18.700606 35.594763 -21.200760 -173.478711 -7.255902 -180.137259
Spine -16.519207 6.857037 1.892325
Head 0.584863 -7.390520 -6.122531
LeftShoulder 17.651324 -35.224137 -19.216225
LeftArm 18.317638 23.272340 -76.101277
LeftForeArm -36.980565 -0.000000 139.440044
LeftHand -0.750837 -0.000000 23.927394
LeftHandThumb1 -26.253704 0.000000 33.147579
RightShoulder 16.494946 59.439808 -33.399369
RightArm 95.740368 -30.336626 63.993964
RightForeArm -54.843817 -0.000000 120.404435
RightHand -6.312889 0.000000 7.807484
RightHandThumb1 -24.326973 -0.000000 -32.862282
LeftUpLeg -0.862809 9.501383 0.370919
LeftLeg -6.022486 -0.000000 0.000000
LeftFoot -17.669926 27.134625 -12.124792
LeftToeBase 26.538399 -0.000000 -0.000000
RightUpLeg 0.181594 -12.663596 0.531582
RightLeg -3.950637 -0.000000 0.000000
RightFoot -20.204872 -28.190800 13.197110
RightToeBase 23.609342 -0.000000 -0.000000
